<svg width="169" height="44" xmlns="http://www.w3.org/2000/svg" fill="none">

 <g>
  <title>Layer 1</title>
  <path id="svg_2" fill="#E2D703" d="m44,22c0,12.1503 -9.8497,22 -22,22c-12.15026,0 -22,-9.8497 -22,-22c0,-12.15026 9.84974,-22 22,-22c12.1503,0 22,9.84974 22,22zm-28,-4c0,2.7614 -2.2386,5 -5,5c-2.76142,0 -5,-2.2386 -5,-5c0,-2.7614 2.23858,-5 5,-5c2.7614,0 5,2.2386 5,5zm-1,18c2.7614,0 5,-2.2386 5,-5c0,-2.7614 -2.2386,-5 -5,-5c-2.7614,0 -5,2.2386 -5,5c0,2.7614 2.2386,5 5,5zm19,-5c0,2.7614 -2.2386,5 -5,5c-2.7614,0 -5,-2.2386 -5,-5c0,-2.7614 2.2386,-5 5,-5c2.7614,0 5,2.2386 5,5zm-1,-8c2.7614,0 5,-2.2386 5,-5c0,-2.7614 -2.2386,-5 -5,-5c-2.7614,0 -5,2.2386 -5,5c0,2.7614 2.2386,5 5,5zm-6,-13c0,2.7614 -2.2386,5 -5,5c-2.7614,0 -5,-2.2386 -5,-5c0,-2.76142 2.2386,-5 5,-5c2.7614,0 5,2.23858 5,5zm-5,14c1.1046,0 2,-0.8954 2,-2c0,-1.1046 -0.8954,-2 -2,-2c-1.1046,0 -2,0.8954 -2,2c0,1.1046 0.8954,2 2,2z" clip-rule="evenodd" fill-rule="evenodd"/>
  <path id="svg_3" stroke-linejoin="round" stroke-linecap="round" stroke-width="3" stroke="#E2D703" d="m33.5,38.5c2,-1.3333 9.5,-3.5 16,1.5"/>
 </g>
</svg>